#!OML:ASF X:\für Bonn\!DataBase\2005_08_11_Bastian_Final\c3d\Bastian.ASF
:FULLY-SPECIFIED
:DEGREES
31
root -9.40522 17.4225 8.93713 897.495 37.2938 -168.711
lowerback 24.608 -4.25993 5.32137
upperback 18.9041 -0.34246 6.07477
thorax 7.57703 1.67452 4.05156
lowerneck -18.0089 -11.7373 -21.9452
upperneck -6.29576 -11.2873 25.8537
head 4.20067 -4.09646 10.9291
rclavicle -4.69132e-014 -1.82087e-013
rhumerus -14.7112 10.9834 -80.8693
rradius 62.8861
rwrist 2.79814
rhand -19.4954 6.7775
rfingers 7.12502
rthumb 6.8269 -23.0924
lclavicle -4.69132e-014 -1.82087e-013
lhumerus -18.8882 -17.6825 91.8334
lradius 24.0283
lwrist 15.0378
lhand -13.0968 -8.65024
lfingers 7.12502
lthumb 12.9999 20.9247
rfemur 4.24226 -10.276 30.8814
rtibia 38.0217
rfoot -14.162 9.45043
rtoes -13.7238
lfemur -29.6141 0.878136 -8.99857
ltibia 37.6078
lfoot 14.1561 -4.72224
ltoes -35.6862
32
root -9.34165 17.4122 8.86784 897.531 37.3946 -168.724
lowerback 24.3926 -4.15029 5.22796
upperback 18.8578 -0.282166 5.98353
thorax 7.61819 1.68514 3.98489
lowerneck -17.9531 -11.793 -22.162
upperneck -6.23613 -11.3591 26.0614
head 4.26246 -4.12669 11.0333
rclavicle -4.92986e-014 -2.14687e-014
rhumerus -14.8264 11.3018 -81.0302
rradius 63.1686
rwrist 2.94967
rhand -19.3376 6.82748
rfingers 7.12502
rthumb 6.97928 -23.0375
lclavicle -4.92986e-014 -2.14687e-014
lhumerus -19.1603 -17.5566 91.8243
lradius 24.0729
lwrist 15.1284
lhand -13.0852 -8.60951
lfingers 7.12502
lthumb 13.0111 20.9647
rfemur 4.65088 -10.0703 30.894
rtibia 37.8271
rfoot -14.3236 9.40832
rtoes -13.5822
lfemur -29.6119 0.467485 -8.8312
ltibia 36.7661
lfoot 14.7453 -4.93392
ltoes -35.8225
33
root -9.27645 17.4017 8.79769 897.577 37.4651 -168.71
lowerback 24.1774 -4.05739 5.20553
upperback 18.8135 -0.227755 5.86177
thorax 7.66112 1.70366 3.84629
lowerneck -17.8976 -11.8647 -22.3315
upperneck -6.19561 -11.4597 26.2876
head 4.32567 -4.17022 11.131
rclavicle 3.18055e-014 -1.51076e-014
rhumerus -14.9294 11.5922 -81.2144
rradius 63.407
rwrist 3.10124
rhand -19.1954 6.79301
rfingers 7.12502
rthumb 7.11657 -23.0673
lclavicle 3.18055e-014 -1.51076e-014
lhumerus -19.3942 -17.411 91.7441
lradius 24.0851
lwrist 15.1502
lhand -13.0189 -8.59362
lfingers 7.12502
lthumb 13.075 20.9765
rfemur 5.06791 -9.88733 30.9263
rtibia 37.6412
rfoot -14.447 9.37975
rtoes -13.2502
lfemur -29.6158 0.0374503 -8.62972
ltibia 35.9861
lfoot 15.3748 -5.10491
ltoes -35.3432
34
root -9.20927 17.3909 8.72655 897.671 37.5486 -168.674
lowerback 23.9148 -3.95372 5.15117
upperback 18.7798 -0.169733 5.76151
thorax 7.74133 1.71899 3.751
lowerneck -17.9139 -11.9429 -22.4984
upperneck -6.11708 -11.5598 26.4896
head 4.40837 -4.20865 11.2183
rclavicle -6.04305e-014 4.77083e-015
rhumerus -15.0037 11.8412 -81.3832
rradius 63.6089
rwrist 3.22591
rhand -19.021 6.86144
rfingers 7.12502
rthumb 7.28484 -22.9932
lclavicle -6.04305e-014 4.77083e-015
lhumerus -19.5475 -17.1323 91.6553
lradius 24.0423
lwrist 15.1495
lhand -12.9567 -8.61878
lfingers 7.12502
lthumb 13.1349 20.9475
rfemur 5.45852 -9.73888 30.9608
rtibia 37.4643
rfoot -14.6022 9.44118
rtoes -12.9684
lfemur -29.6523 -0.376973 -8.39085
ltibia 35.2729
lfoot 15.9932 -5.25545
ltoes -34.7107
35
root -9.14154 17.379 8.65511 897.74 37.6176 -168.661
lowerback 23.6802 -3.84456 5.0722
upperback 18.729 -0.107974 5.65333
thorax 7.78751 1.73249 3.65855
lowerneck -17.8285 -11.9933 -22.6619
upperneck -6.1002 -11.635 26.7346
head 4.4572 -4.24143 11.3279
rclavicle -1.20066e-013 1.59028e-015
rhumerus -15.1038 12.069 -81.5641
rradius 63.7675
rwrist 3.32224
rhand -18.8019 6.91497
rfingers 7.12502
rthumb 7.49635 -22.9322
lclavicle -1.20066e-013 1.59028e-015
lhumerus -19.7426 -16.9996 91.5774
lradius 24.0285
lwrist 15.3142
lhand -12.9034 -8.63265
lfingers 7.12502
lthumb 13.1863 20.9303
rfemur 5.85396 -9.6562 30.9476
rtibia 37.299
rfoot -14.7398 9.55697
rtoes -12.6941
lfemur -29.6812 -0.788096 -8.16979
ltibia 34.6189
lfoot 16.5832 -5.36922
ltoes -33.9141
36
root -9.07255 17.3674 8.58226 897.865 37.6657 -168.654
lowerback 23.3709 -3.7334 4.99729
upperback 18.6795 -0.0522208 5.55664
thorax 7.87271 1.7414 3.57926
lowerneck -17.7701 -12.069 -22.8529
upperneck -6.0755 -11.7364 26.9687
head 4.51943 -4.28495 11.4333
rclavicle -1.11319e-013 5.1684e-014
rhumerus -15.2051 12.2895 -81.6985
rradius 63.9238
rwrist 3.35899
rhand -18.5859 7.00368
rfingers 7.12502
rthumb 7.70484 -22.836
lclavicle -1.11319e-013 5.1684e-014
lhumerus -19.8789 -16.8487 91.51
lradius 23.9858
lwrist 15.4562
lhand -12.8698 -8.68274
lfingers 7.12502
lthumb 13.2187 20.8782
rfemur 6.18146 -9.62158 30.9176
rtibia 37.145
rfoot -14.8722 9.73329
rtoes -12.3296
lfemur -29.7718 -1.23626 -7.93451
ltibia 34.037
lfoot 17.0315 -5.50164
ltoes -33.0044
